<svg id="Layer_1" data-name="Layer 1" xmlns="http://www.w3.org/2000/svg" viewBox="0 0 1024 1024"><defs><style>.cls-1{fill:#f8f8f8;}.cls-2{fill:#eaebec;}.cls-3{fill:#dbdcdd;}.cls-4{fill:#a6a8aa;}.cls-5{fill:#8cc5ae;}.cls-6{fill:#80b3a0;}</style></defs><title>bettertoken</title><polygon class="cls-1" points="512 807.89 354.35 764.16 512 736.71 669.65 764.16 512 807.89"/><polygon class="cls-2" points="354.35 764.16 354.35 864.25 512 947.25 512 807.89 354.35 764.16"/><polygon class="cls-3" points="669.65 764.16 669.65 864.25 512 947.25 512 807.89 669.65 764.16"/><ellipse class="cls-4" cx="512" cy="775.1" rx="29.38" ry="5.64"/><path class="cls-5" d="M523.49,287l53.36-53.36a10.42,10.42,0,0,0-14.73-14.73l-38.63,38.63V148.83a10.42,10.42,0,0,0-20.83,0v64L476.85,187a10.41,10.41,0,0,0-14.73,14.72l40.54,40.53V359.66a10.42,10.42,0,1,0,20.83,0Z"/><path class="cls-5" d="M368.93,442.21V367.53a10.42,10.42,0,0,0-20.83,0v53.85l-87.69-87.69a10.41,10.41,0,0,0-14.73,14.72l33.26,33.26H242.2a10.42,10.42,0,1,0,0,20.83h57.57l93.55,93.56a10.42,10.42,0,0,0,14.73-14.73Z"/><path class="cls-5" d="M779.08,385.74h-35l35.8-35.8a10.42,10.42,0,0,0-14.73-14.73l-87,87V369.75a10.42,10.42,0,0,0-20.83,0V443l-39.83,39.84a10.41,10.41,0,1,0,14.72,14.72l40.69-40.68a10.3,10.3,0,0,0,3.68-3.68l46.65-46.65h55.86a10.42,10.42,0,0,0,0-20.83Z"/><path class="cls-6" d="M811.46,302.06c-31.16-31.17-182.81,27.38-215.29,77.57C556,441.77,579.94,491.9,591.43,509.82l-69,69V397.14c22-5.19,72.66-24.69,87.92-96C623,242.15,556.51,92.07,512,92.07S401,242.15,413.66,301.18c15.26,71.27,65.95,90.77,87.92,96v181.4l-68.89-68.9c11.52-18.06,35.23-68.06-4.86-130-32.48-50.19-184.13-108.74-215.29-77.57s27.38,182.82,77.56,215.3c59.06,38.22,107.33,18.42,127.35,6.51L501.58,608V780.36c3.25.23,6.74.38,10.42.38s7.17-.15,10.42-.38V608.28l84.3-84.3c20.14,11.92,68.3,31.48,127.18-6.62C784.08,484.88,842.64,333.23,811.46,302.06Zm-403.41,194a10.42,10.42,0,0,1-14.73,0L299.77,402.5H242.2a10.42,10.42,0,1,1,0-20.83h36.74l-33.26-33.26a10.41,10.41,0,0,1,14.73-14.72l87.69,87.69V367.53a10.42,10.42,0,0,1,20.83,0v74.68l39.12,39.12A10.41,10.41,0,0,1,408.05,496.06Zm105-126a10.41,10.41,0,0,1-10.42-10.42V242.25l-40.54-40.53A10.41,10.41,0,0,1,476.85,187l25.81,25.8v-64a10.42,10.42,0,0,1,20.83,0V257.56l38.63-38.63a10.42,10.42,0,0,1,14.73,14.73L523.49,287v72.64A10.41,10.41,0,0,1,513.08,370.08Zm266,36.49H723.22l-46.65,46.65a10.3,10.3,0,0,1-3.68,3.68L632.2,497.58a10.41,10.41,0,1,1-14.72-14.72L657.31,443V369.75a10.42,10.42,0,0,1,20.83,0v52.44l87-87a10.42,10.42,0,0,1,14.73,14.73l-35.8,35.8h35a10.42,10.42,0,0,1,0,20.83Z"/></svg>