<svg id="Layer_1" data-name="Layer 1" xmlns="http://www.w3.org/2000/svg" viewBox="0 0 1024 1024"><defs><style>.cls-1{fill:#505052;}.cls-2{fill:#4a494b;}.cls-3{fill:#434244;}.cls-4{fill:#363436;}.cls-5{fill:#80b3a0;}.cls-6{fill:#8cc5ae;}</style></defs><title>bettertoken</title><polygon class="cls-1" points="512 822.08 342.4 775.04 512 745.5 681.6 775.04 512 822.08"/><polygon class="cls-2" points="342.4 775.04 342.4 882.71 512 972 512 822.08 342.4 775.04"/><polygon class="cls-3" points="681.6 775.04 681.6 882.71 512 972 512 822.08 681.6 775.04"/><ellipse class="cls-4" cx="512" cy="786.81" rx="31.61" ry="6.06"/><path class="cls-5" d="M524.36,261.73l57.41-57.4a11.21,11.21,0,1,0-15.85-15.85L524.36,230v-117a11.21,11.21,0,0,0-22.41,0v68.81l-27.77-27.75A11.2,11.2,0,0,0,458.34,170L502,213.56V339.88a11.21,11.21,0,0,0,22.41,0Z"/><path class="cls-5" d="M358.09,428.68V348.35a11.21,11.21,0,1,0-22.41,0v57.92l-94.34-94.34a11.21,11.21,0,0,0-15.85,15.85l35.78,35.78H221.75a11.21,11.21,0,0,0,0,22.41h61.93L384.33,486.61a11.2,11.2,0,0,0,15.84-15.84Z"/><path class="cls-5" d="M799.32,367.93H761.63l38.52-38.51a11.21,11.21,0,0,0-15.85-15.85l-93.57,93.58V350.73a11.21,11.21,0,0,0-22.41,0v78.83l-42.85,42.85a11.2,11.2,0,1,0,15.84,15.84l43.77-43.77a10.9,10.9,0,0,0,4-4l50.18-50.18h60.1a11.21,11.21,0,0,0,0-22.41Z"/><path class="cls-6" d="M834.16,277.91c-33.53-33.53-196.67,29.46-231.61,83.45-43.26,66.85-17.46,120.77-5.1,140.05l-74.24,74.24V380.2c23.64-5.59,78.16-26.56,94.59-103.24C631.4,213.46,559.89,52,512,52S392.6,213.46,406.2,277c16.43,76.68,70.95,97.65,94.59,103.24V575.35l-74.12-74.12c12.4-19.44,37.91-73.23-5.22-139.87-34.94-54-198.08-117-231.61-83.45s29.45,196.68,83.44,231.62c63.54,41.12,115.46,19.82,137,7L500.79,607V792.46c3.5.25,7.25.41,11.21.41s7.71-.16,11.21-.41V607.34l90.69-90.7c21.67,12.84,73.48,33.88,136.82-7.11C804.71,474.59,867.7,311.45,834.16,277.91Zm-434,208.7a11.2,11.2,0,0,1-15.84,0L283.68,386H221.75a11.21,11.21,0,0,1,0-22.41h39.52l-35.78-35.78a11.21,11.21,0,0,1,15.85-15.85l94.34,94.34V348.35a11.21,11.21,0,1,1,22.41,0v80.33l42.08,42.09A11.19,11.19,0,0,1,400.17,486.61Zm113-135.53A11.2,11.2,0,0,1,502,339.88V213.56L458.34,170a11.2,11.2,0,0,1,15.84-15.84L502,181.88V113.07a11.21,11.21,0,0,1,22.41,0V230l41.56-41.56a11.21,11.21,0,1,1,15.85,15.85l-57.41,57.4v78.15A11.19,11.19,0,0,1,513.16,351.08Zm286.16,39.26h-60.1L689,440.52a10.9,10.9,0,0,1-4,4l-43.77,43.77a11.2,11.2,0,1,1-15.84-15.84l42.85-42.85V350.73a11.21,11.21,0,0,1,22.41,0v56.42l93.57-93.58a11.21,11.21,0,0,1,15.85,15.85l-38.52,38.51h37.69a11.21,11.21,0,0,1,0,22.41Z"/></svg>